<?xml version="1.0" encoding="utf-8"?>
<!-- Generator: Adobe Illustrator 17.1.0, SVG Export Plug-In . SVG Version: 6.00 Build 0)  -->
<!DOCTYPE svg PUBLIC "-//W3C//DTD SVG 1.1//EN" "http://www.w3.org/Graphics/SVG/1.1/DTD/svg11.dtd">
<svg version="1.1" id="Layer_1" xmlns="http://www.w3.org/2000/svg" xmlns:xlink="http://www.w3.org/1999/xlink" height="40px" width="40px" x="0px" y="0px"
	 viewBox="0 0 176.1 171.7" enable-background="new 0 0 176.1 171.7" xml:space="preserve">
<g>
	<path fill-rule="evenodd" clip-rule="evenodd" fill="#292e31" d="M88,0C39.4,0,0,39.4,0,88c0,38.9,25.2,71.9,60.2,83.5
		c4.4,0.8,6-1.9,6-4.2c0-2.1-0.1-9-0.1-16.4c-24.5,5.3-29.7-10.4-29.7-10.4c-4-10.2-9.8-12.9-9.8-12.9c-8-5.5,0.6-5.4,0.6-5.4
		c8.8,0.6,13.5,9.1,13.5,9.1c7.9,13.5,20.6,9.6,25.6,7.3c0.8-5.7,3.1-9.6,5.6-11.8c-19.6-2.2-40.1-9.8-40.1-43.5
		c0-9.6,3.4-17.5,9.1-23.6C40,57.6,37,48.6,41.8,36.5c0,0,7.4-2.4,24.2,9c7-2,14.6-2.9,22-3c7.5,0,15,1,22.1,3
		c16.8-11.4,24.2-9,24.2-9c4.8,12.1,1.8,21.1,0.9,23.3c5.6,6.2,9.1,14,9.1,23.6c0,33.8-20.6,41.3-40.2,43.4c3.2,2.7,6,8.1,6,16.3
		c0,11.8-0.1,21.3-0.1,24.2c0,2.3,1.6,5.1,6,4.2c35-11.7,60.1-44.6,60.1-83.5C176.1,39.4,136.6,0,88,0z"/>
	<path fill="#292e31" d="M33.3,126.4c-0.2,0.4-0.9,0.6-1.5,0.3c-0.6-0.3-1-0.9-0.8-1.3c0.2-0.4,0.9-0.6,1.5-0.3
		C33.2,125.3,33.6,125.9,33.3,126.4L33.3,126.4z M32.3,125.6"/>
	<path fill="#292e31" d="M36.9,130.4c-0.4,0.4-1.2,0.2-1.8-0.4c-0.6-0.6-0.7-1.4-0.3-1.8c0.4-0.4,1.2-0.2,1.8,0.4
		C37.2,129.2,37.3,130,36.9,130.4L36.9,130.4z M36.1,129.5"/>
	<path fill="#292e31" d="M40.4,135.4c-0.5,0.4-1.4,0-2-0.8c-0.5-0.8-0.5-1.7,0-2.1c0.5-0.4,1.4,0,2,0.7
		C40.9,134.1,40.9,135,40.4,135.4L40.4,135.4z M40.4,135.4"/>
	<path fill="#292e31" d="M45.1,140.3c-0.5,0.5-1.5,0.4-2.3-0.3c-0.8-0.7-1-1.7-0.5-2.2c0.5-0.5,1.5-0.4,2.3,0.3
		C45.4,138.8,45.6,139.8,45.1,140.3L45.1,140.3z M45.1,140.3"/>
	<path fill="#292e31" d="M51.7,143.2c-0.2,0.7-1.2,1-2.2,0.7c-1-0.3-1.6-1.1-1.4-1.8c0.2-0.7,1.2-1,2.2-0.7
		C51.2,141.7,51.9,142.5,51.7,143.2L51.7,143.2z M51.7,143.2"/>
	<path fill="#292e31" d="M58.9,143.7c0,0.7-0.8,1.3-1.9,1.3c-1.1,0-1.9-0.6-1.9-1.3c0-0.7,0.8-1.3,1.9-1.3
		C58,142.4,58.9,143,58.9,143.7L58.9,143.7z M58.9,143.7"/>
	<path fill="#292e31" d="M65.6,142.6c0.1,0.7-0.6,1.4-1.6,1.6c-1,0.2-2-0.3-2.1-1c-0.1-0.7,0.6-1.5,1.6-1.6
		C64.5,141.4,65.5,141.8,65.6,142.6L65.6,142.6z M65.6,142.6"/>
</g>
</svg>
